<svg width="55" height="38" viewBox="0 0 55 38" fill="none" xmlns="http://www.w3.org/2000/svg">
<path d="M7.57306 5.02174L0 12.6823L20.8907 33.8331L31.9545 22.6317L14.561 5.02174C12.6328 3.06957 9.50123 3.06957 7.57306 5.02174Z" fill="black"/>
<path d="M53.1377 6.49609L23.5104 36.4922C25.4385 38.4444 28.5702 38.4444 30.4983 36.4922L53.1377 13.571C55.0659 11.6189 55.0659 8.44826 53.1377 6.49609Z" fill="black"/>
<path d="M43.5633 10.8782L34.2616 1.46071C32.3334 -0.49146 29.2018 -0.49146 27.2736 1.46071L21.6354 7.16912L34.4278 20.1208L43.5633 10.8715V10.8782Z" fill="black"/>
<path d="M50.5181 3.84351L49.2415 2.55104C47.3133 0.598872 44.1817 0.598872 42.2535 2.55104L40.9769 3.84351L45.7442 8.67008L50.5114 3.84351H50.5181Z" fill="black"/>
</svg>
