<svg width="127" height="38" viewBox="0 0 127 38" fill="none" xmlns="http://www.w3.org/2000/svg">
<g clip-path="url(#clip0_825_2778)">
<path d="M7.57306 5.02174L0 12.6823L20.8907 33.8331L31.9545 22.6317L14.561 5.02174C12.6328 3.06957 9.50123 3.06957 7.57306 5.02174Z" fill="#248BE3"/>
<path d="M53.1377 6.49609L23.5104 36.4922C25.4385 38.4444 28.5702 38.4444 30.4983 36.4922L53.1377 13.571C55.0659 11.6189 55.0659 8.44826 53.1377 6.49609Z" fill="#248BE3"/>
<path d="M43.5633 10.8782L34.2616 1.46071C32.3334 -0.49146 29.2018 -0.49146 27.2736 1.46071L21.6354 7.16912L34.4278 20.1208L43.5633 10.8715V10.8782Z" fill="#248BE3"/>
<path d="M50.5181 3.84351L49.2415 2.55104C47.3133 0.598872 44.1817 0.598872 42.2535 2.55104L40.9769 3.84351L45.7442 8.67008L50.5114 3.84351H50.5181Z" fill="#248BE3"/>
<path d="M80.0856 15.5166L76.8409 15.5301L76.2957 5.33165L72.8184 13.5106H70.3317L66.8211 5.34511L66.3091 15.4964H63.0179L64.2812 0.10791H67.5059L71.6149 9.34369L75.8303 0.10791H78.8888L80.0856 15.5166Z" fill="white"/>
<path d="M86.5616 2.95539V5.94423H91.9671V8.85229H86.5616V12.6355H93.3834V15.5435H83.2372V0.10791H93.3834V2.95539H86.5616Z" fill="white"/>
<path d="M117.931 29.5856H124.586V26.0717H117.931V22.4702H126.156V19.0506L113.922 19.0371V37.65H126.156V34.1429H117.931V29.5856Z" fill="white"/>
<path d="M109.66 0.10791V15.4695H106.714L99.8993 5.49994V15.4695H96.4751V0.10791H99.3341L106.216 9.13501L106.249 9.18887L106.236 9.08789V0.10791H109.66Z" fill="white"/>
<path d="M120.95 0.10791H117.672L111.595 15.4829H115.132L116.269 12.1373H122.22L123.403 15.5099L127 15.4964L120.95 0.10791ZM117.2 9.39081L119.201 3.50065L121.262 9.39081H117.206H117.2Z" fill="white"/>
<path d="M89.1347 19.0977H85.2252L77.9181 37.6567H82.1734L83.5164 33.5639H90.6839L92.0669 37.6567H96.4019L89.1347 19.0977ZM84.6401 30.2452L87.047 23.1568L89.527 30.2452H84.6401Z" fill="white"/>
<path d="M67.599 23.6749C68.2373 20.5986 74.4274 23.1095 74.4274 23.1095L75.6175 19.811C71.9407 17.7781 63.2174 17.5828 63.3038 24.025C63.3903 30.4739 72.1801 28.8179 72.1801 32.5876C72.1801 36.3573 64.2081 33.2338 64.2081 33.2338L63.0179 36.6468C67.2466 38.7201 76.4553 39.1644 76.4553 32.4732C76.4553 25.7819 66.9807 26.6436 67.599 23.6749Z" fill="white"/>
<path d="M111.262 34.0352V37.65H98.9751V19.0371H102.971V34.0352H111.262Z" fill="white"/>
</g>
<defs>
<clipPath id="clip0_825_2778">
<rect width="127" height="38" fill="white"/>
</clipPath>
</defs>
</svg>
