<svg width="117" height="90" viewBox="0 0 117 90" fill="none" xmlns="http://www.w3.org/2000/svg">
<path id="&#226;&#128;&#156;" opacity="0.04" d="M26.1102 89.992C18.178 89.992 11.7881 87.3562 6.94068 82.0846C2.31356 76.813 0 69.7842 0 60.9982C0 51.773 2.86441 42.2182 8.59322 32.334C14.5424 22.4498 22.2542 13.554 31.7288 5.64658C35.9153 2.13219 39.5508 0.375 42.6356 0.375C45.0593 0.375 47.2627 1.47324 49.2458 3.66974C50.7881 5.42693 51.5593 7.40379 51.5593 9.60028C51.5593 12.2361 50.0169 14.762 46.9322 17.1782C42.3051 20.9122 38.1186 25.415 34.3729 30.6866C30.8475 35.9582 28.6441 40.5709 27.7627 44.5245C28.6441 44.3049 29.8559 44.195 31.3983 44.195C37.1271 44.195 41.9746 46.2817 45.9407 50.4551C50.1271 54.6284 52.2203 59.9 52.2203 66.2698C52.2203 73.2986 49.7966 79.0095 44.9492 83.4025C40.1017 87.7955 33.822 89.992 26.1102 89.992ZM90.8898 89.992C82.9576 89.992 76.5678 87.466 71.7203 82.4141C67.0932 77.1425 64.7797 70.0039 64.7797 60.9982C64.7797 51.773 67.7542 42.2182 73.7034 32.334C79.6525 22.2301 87.2542 13.3343 96.5085 5.64658C100.695 2.13219 104.22 0.375 107.085 0.375C109.949 0.375 112.263 1.58307 114.025 3.9992C115.568 5.53676 116.339 7.40379 116.339 9.60028C116.339 12.4557 114.907 14.9817 112.042 17.1782C107.415 21.1319 103.229 25.7445 99.483 31.0161C95.7373 36.068 93.4237 40.5709 92.5424 44.5245C93.4237 44.3049 94.6356 44.195 96.178 44.195C101.907 44.195 106.754 46.2817 110.72 50.4551C114.907 54.6284 117 59.9 117 66.2698C117 73.2986 114.576 79.0095 109.729 83.4025C104.881 87.7955 98.6017 89.992 90.8898 89.992Z" fill="black"/>
</svg>
